<?xml version="1.0" encoding="utf-8"?>
<!-- Generator: Adobe Illustrator 15.1.0, SVG Export Plug-In . SVG Version: 6.00 Build 0)  -->
<!DOCTYPE svg PUBLIC "-//W3C//DTD SVG 1.1//EN" "http://www.w3.org/Graphics/SVG/1.1/DTD/svg11.dtd">
<svg version="1.1" xmlns="http://www.w3.org/2000/svg" xmlns:xlink="http://www.w3.org/1999/xlink" x="0px" y="0px"
	 width="595.275px" height="388.481px" viewBox="-235.138 -254.891 595.275 388.481"
	 enable-background="new -235.138 -254.891 595.275 388.481" xml:space="preserve">
<g id="logo_petit">
	<path fill="#38464D" d="M-140.875,17.016c0,0,11.727-2.835,49.186-20.771L153.057-124.7c0,0,58.363-25.15,52.422-31.451
		c-3.543-7.509-55.824,24.689-55.824,24.689l-0.066,0.007L-94.688-9.229l0.594-0.317C-94.092-9.546-133.446,11.237-140.875,17.016z
		 M162.348-136.273c5.849-3.144,32.126-16.706,32.126-16.706s4.678-2.517,5.712,0.34c0,0,0.842,1.455-3.189,3.577
		c0,0-27.491,14.444-32.538,16.9c0,0-1.568,0.968-2.982-0.801l-0.175-0.348C160.586-135.191,162.348-136.273,162.348-136.273z"/>
	<g>
		<path fill="#38464D" d="M143.473,44.929L96.169,21.643c-9.473-4.418-27.994-16.08-27.994-16.08L-59.217-54.376
			c1.896-4.267-0.808-5.406-0.808-5.406c-3.605-2.168-5.414,2.503-5.414,2.503l-24.682-12.856c0,0-0.722,2.53-4.78,10.253
			l25.718,10.639c0,0-2.416,4.394,1.555,5.761c0,0,2.617,1.336,4.673-2.856L64.838,12.72c0,0,20.838,6.695,30.309,11.105
			l48.244,21.271"/>
		<g>
			<path fill="#38464D" d="M-203.917-117.184c0,0-6.582,12.602,9.805,18.97c0,0,27.267,7.481,42.985,14.478
				c0,0,33.152,12.562,35.462,13.922c0,0,9.706,3.924,13.108,7.148c0,0-2.87,5.353,0.127,7.284c0,0,3.805,2.961,7.529-4.5
				l4.78-10.253c3.322-7.654-1.388-8.656-1.388-8.656c-3.406-1.061-5.669,4.578-5.669,4.578c-4.651-0.532-13.903-5.445-13.903-5.445
				c-2.529-0.894-33.451-18.215-33.451-18.215c-15.466-7.543-38.726-23.622-38.726-23.622c-15.413-8.457-20.825,4.679-20.825,4.679"
				/>
		</g>
	</g>
</g>
<g id="Calque_2">
</g>
</svg>
